<svg width="37" height="41" viewBox="0 0 37 41" fill="none" xmlns="http://www.w3.org/2000/svg">
<path d="M25.3107 17.1214C25.9939 16.4452 26.4179 15.5078 26.4179 14.4729C26.4179 12.4175 24.7453 10.7453 22.6894 10.7453C21.1052 10.7453 19.7011 11.7496 19.1769 13.2212C18.9571 13.1806 18.7311 13.1584 18.4997 13.1584C18.2684 13.1584 18.0424 13.1806 17.8226 13.2212C17.2983 11.7495 15.8941 10.7453 14.31 10.7453C12.2542 10.7453 10.5816 12.4175 10.5816 14.4729C10.5816 15.5078 11.0056 16.4452 11.6888 17.1214C10.0501 18.0549 8.99512 19.8225 8.99512 21.745C8.99512 22.0767 9.26402 22.3456 9.59571 22.3456C9.92739 22.3456 10.1963 22.0767 10.1963 21.745C10.1963 20.0471 11.2593 18.5052 12.8438 17.9006C13.2941 18.0939 13.7897 18.2014 14.3101 18.2014C14.5393 18.2014 14.7662 18.1793 14.9884 18.1383C15.1782 18.6693 15.4849 19.145 15.8778 19.5342C14.2242 20.4704 13.185 22.225 13.185 24.1583C13.185 24.4901 13.4539 24.7589 13.7856 24.7589C14.1173 24.7589 14.3862 24.4901 14.3862 24.1583C14.3862 22.5012 15.3724 21.0133 16.8987 20.3677C16.9395 20.3504 16.9773 20.3289 17.012 20.3043C17.4681 20.5036 17.971 20.6149 18.4997 20.6149C19.0202 20.6149 19.5159 20.5074 19.9663 20.3139C21.55 20.9186 22.6133 22.462 22.6133 24.1583C22.6133 24.4901 22.8822 24.7589 23.2139 24.7589C23.5455 24.7589 23.8145 24.4901 23.8145 24.1583C23.8145 22.2376 22.7593 20.4685 21.121 19.5347C21.5142 19.1455 21.8211 18.6696 22.0111 18.1383C22.2333 18.1793 22.4602 18.2014 22.6893 18.2014C23.2097 18.2014 23.7053 18.0939 24.1556 17.9006C25.74 18.5052 26.8031 20.0469 26.8031 21.745C26.8031 22.0767 27.072 22.3456 27.4037 22.3456C27.7353 22.3456 28.0042 22.0767 28.0042 21.745C28.0044 19.8224 26.9494 18.0549 25.3107 17.1214ZM14.7716 16.8867C14.7716 16.9103 14.7729 16.9335 14.7733 16.957C14.6221 16.9852 14.4671 17.0002 14.3101 17.0002C12.9166 17.0002 11.7828 15.8666 11.7828 14.4729C11.7828 13.0799 12.9166 11.9465 14.3101 11.9465C15.3852 11.9465 16.3376 12.6287 16.692 13.6276C15.5477 14.2648 14.7716 15.4866 14.7716 16.8867ZM15.9728 16.8867C15.9728 15.4933 17.1064 14.3596 18.4998 14.3596C19.8932 14.3596 21.0268 15.4932 21.0268 16.8867C21.0268 18.2801 19.8932 19.4137 18.4998 19.4137C17.1064 19.4137 15.9728 18.28 15.9728 16.8867ZM22.2262 16.957C22.2266 16.9335 22.2279 16.9102 22.2279 16.8867C22.2279 15.4866 21.4518 14.2649 20.3075 13.6276C20.6619 12.6287 21.6143 11.9465 22.6894 11.9465C24.083 11.9465 25.2167 13.0799 25.2167 14.473C25.2167 15.8666 24.083 17.0003 22.6894 17.0003C22.5324 17.0002 22.3774 16.9852 22.2262 16.957Z" fill="white"/>
<path d="M34.0536 25.9564V15.0396C35.5507 14.757 36.6868 13.4402 36.6868 11.8623C36.6868 10.0789 35.2361 8.62815 33.4527 8.62815C32.4726 8.62815 31.5936 9.06698 31.0001 9.75774L21.5518 4.30238C21.6693 3.96773 21.734 3.60834 21.734 3.23397C21.734 1.45078 20.2832 0 18.5 0C16.7167 0 15.2658 1.45078 15.2658 3.23405C15.2658 3.60842 15.3304 3.96773 15.448 4.30246L5.99977 9.75774C5.40623 9.06698 4.5272 8.62815 3.54712 8.62815C1.76377 8.62815 0.312988 10.0789 0.312988 11.8623C0.312988 13.4402 1.44914 14.757 2.94621 15.0396V25.9564C1.44914 26.2389 0.312988 27.5558 0.312988 29.1337C0.312988 30.9171 1.76377 32.3678 3.54712 32.3678C4.52568 32.3678 5.40342 31.9304 5.99697 31.2415L15.4479 36.6979C15.3304 37.0324 15.2658 37.3917 15.2658 37.7659C15.2658 39.5493 16.7166 41.0001 18.5 41.0001C20.2833 41.0001 21.7341 39.5493 21.7341 37.7659C21.7341 37.3917 21.6695 37.0324 21.552 36.6979L31.0029 31.2415C31.5965 31.9305 32.4742 32.3678 33.4528 32.3678C35.2361 32.3678 36.6869 30.9171 36.6869 29.1337C36.6868 27.5557 35.5506 26.2389 34.0536 25.9564ZM33.4527 9.82933C34.5737 9.82933 35.4857 10.7413 35.4857 11.8623C35.4857 12.9832 34.5737 13.8952 33.4527 13.8952C32.3318 13.8952 31.4198 12.9832 31.4198 11.8623C31.4198 10.7413 32.3318 9.82933 33.4527 9.82933ZM18.5 1.20118C19.6209 1.20118 20.5329 2.11311 20.5329 3.23405C20.5329 4.35395 19.6226 5.26525 18.5031 5.26693C18.502 5.26693 18.501 5.26677 18.5 5.26677C18.4989 5.26677 18.4979 5.26693 18.4968 5.26693C17.3773 5.26525 16.467 4.35395 16.467 3.23405C16.467 2.11311 17.3789 1.20118 18.5 1.20118ZM1.51417 11.8623C1.51417 10.7413 2.42618 9.82933 3.54712 9.82933C4.66806 9.82933 5.58008 10.7413 5.58008 11.8623C5.58008 12.9832 4.66806 13.8952 3.54712 13.8952C2.42618 13.8952 1.51417 12.9832 1.51417 11.8623ZM3.54712 31.1666C2.42618 31.1666 1.51417 30.2546 1.51417 29.1336C1.51417 28.0127 2.42618 27.1007 3.54712 27.1007C4.66806 27.1007 5.58008 28.0127 5.58008 29.1336C5.58008 30.2546 4.66806 31.1666 3.54712 31.1666ZM18.5 39.7988C17.379 39.7988 16.467 38.8868 16.467 37.7659C16.467 36.6449 17.379 35.7329 18.5 35.7329C19.6209 35.7329 20.5329 36.6449 20.5329 37.7659C20.5329 38.8868 19.6209 39.7988 18.5 39.7988ZM20.95 35.6584C20.4809 35.1138 19.8343 34.727 19.1005 34.5886V32.2748C19.1005 31.943 18.8316 31.6742 18.4999 31.6742C18.1682 31.6742 17.8993 31.943 17.8993 32.2748V34.5886C17.1655 34.727 16.5189 35.1138 16.0498 35.6584L6.599 30.2021C6.71655 29.8674 6.78118 29.5081 6.78118 29.1337C6.78118 28.759 6.71639 28.3993 6.59868 28.0643L8.60304 26.9068C8.89029 26.7409 8.98862 26.3736 8.82278 26.0863C8.65694 25.7991 8.28962 25.7008 8.00229 25.8666L5.99617 27.0252C5.52715 26.4811 4.88075 26.0946 4.14731 25.9564V15.0396C4.88099 14.9013 5.52755 14.5146 5.99657 13.9703L8.00542 15.1304C8.09999 15.1851 8.20329 15.211 8.30523 15.211C8.51272 15.211 8.71459 15.1033 8.82582 14.9107C8.99175 14.6235 8.89333 14.2561 8.60609 14.0902L6.59876 12.931C6.71631 12.5962 6.78102 12.2367 6.78102 11.8623C6.78102 11.4894 6.71687 11.1315 6.6002 10.798L16.0498 5.3418C16.5188 5.88618 17.1654 6.27296 17.899 6.41133V8.72536C17.899 9.05713 18.168 9.32595 18.4996 9.32595C18.8313 9.32595 19.1002 9.05713 19.1002 8.72536V6.41133C19.8339 6.27296 20.4805 5.88618 20.9495 5.3418L30.3991 10.798C30.2825 11.1315 30.2183 11.4894 30.2183 11.8623C30.2183 12.2367 30.283 12.5962 30.4005 12.931L28.3932 14.0902C28.1059 14.2561 28.0075 14.6235 28.1735 14.9107C28.2847 15.1033 28.4866 15.211 28.694 15.211C28.7959 15.211 28.8993 15.1851 28.9939 15.1304L31.0027 13.9703C31.4718 14.5146 32.1184 14.9013 32.852 15.0396V25.9564C32.1185 26.0946 31.4722 26.4811 31.0031 27.0252L28.997 25.8666C28.7097 25.701 28.3424 25.7991 28.1765 26.0863C28.0106 26.3736 28.109 26.7409 28.3962 26.9068L30.4006 28.0643C30.2829 28.3993 30.2181 28.759 30.2181 29.1337C30.2181 29.5081 30.2827 29.8675 30.4003 30.2021L20.95 35.6584ZM33.4527 31.1666C32.3318 31.1666 31.4198 30.2546 31.4198 29.1336C31.4198 28.0127 32.3318 27.1007 33.4527 27.1007C34.5737 27.1007 35.4857 28.0127 35.4857 29.1336C35.4857 30.2546 34.5737 31.1666 33.4527 31.1666Z" fill="white"/>
<path d="M23.53 26.7054H21.7427C21.411 26.7054 21.1421 26.9742 21.1421 27.306C21.1421 27.6378 21.411 27.9066 21.7427 27.9066H23.53C23.8617 27.9066 24.1306 27.6378 24.1306 27.306C24.1306 26.9742 23.8617 26.7054 23.53 26.7054Z" fill="white"/>
<path d="M23.53 29.0577H13.4692C13.1376 29.0577 12.8687 29.3265 12.8687 29.6583C12.8687 29.9901 13.1376 30.2589 13.4692 30.2589H23.5301C23.8618 30.2589 24.1307 29.9901 24.1307 29.6583C24.1307 29.3265 23.8617 29.0577 23.53 29.0577Z" fill="white"/>
<path d="M13.4692 27.9066H13.4776C13.8093 27.9066 14.0782 27.6378 14.0782 27.306C14.0782 26.9742 13.8093 26.7054 13.4776 26.7054H13.4692C13.1376 26.7054 12.8687 26.9742 12.8687 27.306C12.8687 27.6378 13.1376 27.9066 13.4692 27.9066Z" fill="white"/>
<path d="M15.5581 27.9066C15.8898 27.9066 16.1587 27.6378 16.1587 27.306C16.1587 26.9742 15.8898 26.7054 15.5581 26.7054H15.5498C15.2181 26.7054 14.9492 26.9742 14.9492 27.306C14.9492 27.6378 15.2181 27.9066 15.5498 27.9066H15.5581Z" fill="white"/>
<path d="M17.6382 27.9066C17.9699 27.9066 18.2388 27.6378 18.2388 27.306C18.2388 26.9742 17.9699 26.7054 17.6382 26.7054H17.6299C17.2982 26.7054 17.0293 26.9742 17.0293 27.306C17.0293 27.6378 17.2982 27.9066 17.6299 27.9066H17.6382Z" fill="white"/>
</svg>
