<svg width="20" height="16" viewBox="0 0 20 16" fill="none" xmlns="http://www.w3.org/2000/svg">
<path d="M18.7835 3.35016C18.6845 2.95467 18.4829 2.59231 18.199 2.29967C17.9152 2.00703 17.5591 1.79448 17.1668 1.6835C15.7335 1.3335 10.0001 1.3335 10.0001 1.3335C10.0001 1.3335 4.26682 1.3335 2.83348 1.71683C2.44119 1.82782 2.08513 2.04036 1.80127 2.333C1.51741 2.62564 1.31581 2.988 1.21682 3.3835C0.954496 4.83813 0.826181 6.31375 0.833484 7.79183C0.824134 9.28103 0.952457 10.7679 1.21682 12.2335C1.32595 12.6167 1.53207 12.9653 1.81527 13.2456C2.09847 13.5258 2.44917 13.7283 2.83348 13.8335C4.26682 14.2168 10.0001 14.2168 10.0001 14.2168C10.0001 14.2168 15.7335 14.2168 17.1668 13.8335C17.5591 13.7225 17.9152 13.51 18.199 13.2173C18.4829 12.9247 18.6845 12.5623 18.7835 12.1668C19.0438 10.7232 19.1721 9.25877 19.1668 7.79183C19.1762 6.30262 19.0478 4.81574 18.7835 3.35016V3.35016Z" stroke="#ffffff" stroke-width="2" stroke-linecap="round" stroke-linejoin="round"/>
<path d="M8.125 10.5169L12.9167 7.79189L8.125 5.06689V10.5169Z" stroke="#ffffff" stroke-width="2" stroke-linecap="round" stroke-linejoin="round"/>
</svg>
