<svg width="10" height="14" viewBox="0 0 10 14" fill="none" xmlns="http://www.w3.org/2000/svg">
<path d="M9.66683 4.99992C9.66683 4.38708 9.54612 3.78025 9.3116 3.21406C9.07708 2.64788 8.73334 2.13343 8.3 1.70009C7.86666 1.26675 7.35221 0.923003 6.78602 0.688481C6.21983 0.453959 5.613 0.333252 5.00016 0.333252C4.38733 0.333252 3.78049 0.453959 3.21431 0.688481C2.64812 0.923003 2.13367 1.26675 1.70033 1.70009C1.26699 2.13343 0.923247 2.64788 0.688725 3.21406C0.454203 3.78025 0.333496 4.38708 0.333496 4.99992C0.333496 5.92458 0.606829 6.78458 1.07016 7.50992H1.06483C2.63816 9.97325 5.00016 13.6666 5.00016 13.6666L8.9355 7.50992H8.93083C9.4111 6.76083 9.66653 5.88975 9.66683 4.99992ZM5.00016 6.99992C4.46973 6.99992 3.96102 6.7892 3.58595 6.41413C3.21088 6.03906 3.00016 5.53035 3.00016 4.99992C3.00016 4.46949 3.21088 3.96078 3.58595 3.58571C3.96102 3.21063 4.46973 2.99992 5.00016 2.99992C5.5306 2.99992 6.03931 3.21063 6.41438 3.58571C6.78945 3.96078 7.00016 4.46949 7.00016 4.99992C7.00016 5.53035 6.78945 6.03906 6.41438 6.41413C6.03931 6.7892 5.5306 6.99992 5.00016 6.99992Z" fill="#CC3333"/>
</svg>
